<svg width="448" height="400" viewBox="0 0 448 400" fill="none" xmlns="http://www.w3.org/2000/svg">
<path d="M424.455 201.166C424.455 201.166 424.455 195.56 416.607 187.791C408.759 180.021 403.781 175.514 403.781 175.514C403.781 175.514 399.88 188.34 407.145 196.155C412.478 201.643 418.261 206.676 424.433 211.2L424.455 201.166Z" fill="#1E90FF"/>
<path d="M413.132 235.989C413.132 235.989 413.132 230.383 405.284 222.613C397.436 214.844 392.48 210.337 392.48 210.337C392.48 210.337 388.568 223.163 395.844 230.977C401.177 236.465 406.96 241.498 413.132 246.023V235.989Z" fill="#1E90FF"/>
<path d="M423.962 210.662C423.962 210.662 424.556 205.124 433.144 198.184C441.732 191.244 447.192 187.342 447.192 187.342C447.192 187.342 449.714 200.505 441.687 207.523C435.804 212.418 429.523 216.814 422.908 220.663L423.962 210.662Z" fill="#1E90FF"/>
<path d="M410.284 251.785C410.284 251.785 411.405 246.337 420.722 240.339C430.038 234.341 435.823 231.033 435.823 231.033C435.823 231.033 436.945 244.397 428.233 250.507C421.868 254.759 415.159 258.471 408.176 261.607L410.284 251.785Z" fill="#1E90FF"/>
<path d="M412.851 296.631C412.851 296.631 412.851 291.025 420.699 283.245C428.547 275.464 433.514 270.979 433.514 270.979C433.514 270.979 437.427 283.805 430.151 291.608C424.819 297.102 419.036 302.139 412.863 306.665L412.851 296.631Z" fill="#1E90FF"/>
<path d="M412.728 307.573C412.728 307.573 413.513 302.057 406.898 293.223C400.283 284.388 395.945 279.253 395.945 279.253C395.945 279.253 390.26 291.395 396.326 300.151C400.822 306.344 405.828 312.149 411.293 317.507L412.728 307.573Z" fill="#1E90FF"/>
<path d="M405.026 340.008C405.026 340.008 405.026 334.402 412.874 326.633C420.722 318.863 425.7 314.356 425.7 314.356C425.7 314.356 429.601 327.182 422.336 334.996C417.001 340.487 411.219 345.523 405.048 350.053L405.026 340.008Z" fill="#1E90FF"/>
<path d="M410.239 369.415C410.239 369.415 408.826 364.023 414.398 354.493C419.971 344.963 423.704 339.38 423.704 339.38C423.704 339.38 430.722 350.793 425.688 360.188C421.922 366.849 417.606 373.183 412.784 379.124L410.239 369.415Z" fill="#1E90FF"/>
<path d="M425.161 199.742C424.769 205.547 424.058 211.326 423.031 217.053C419.937 232.995 412.223 243.287 409.14 257.683C406.057 272.078 414.914 290.633 412.504 309.132C410.093 327.631 402.94 337.911 404.992 350.255C407.044 362.599 417.852 396.031 417.852 396.031" stroke="#263238" stroke-width="0.487963" stroke-linecap="round" stroke-linejoin="round"/>
<path d="M423.895 214.373L432.303 207.915" stroke="#263238" stroke-width="0.487963" stroke-linecap="round" stroke-linejoin="round"/>
<path d="M424.287 206.94L420.755 200.673" stroke="#263238" stroke-width="0.487963" stroke-linecap="round" stroke-linejoin="round"/>
<path d="M409.611 257.021C409.611 257.021 416.652 251.741 423.895 246.46" stroke="#263238" stroke-width="0.487963" stroke-linecap="round" stroke-linejoin="round"/>
<path d="M413.132 246.023C413.132 246.023 407.257 234.52 400.609 226.896" stroke="#263238" stroke-width="0.487963" stroke-linecap="round" stroke-linejoin="round"/>
<path d="M413.132 304.569C417.148 297.146 422.224 290.348 428.2 284.388" stroke="#263238" stroke-width="0.487963" stroke-linecap="round" stroke-linejoin="round"/>
<path d="M411.764 312.394C409.627 307.361 407.073 302.516 404.129 297.909C400.026 291.844 399.431 291.059 399.431 291.059" stroke="#263238" stroke-width="0.487963" stroke-linecap="round" stroke-linejoin="round"/>
<path d="M405.026 350.255C406.813 345.836 408.935 341.56 411.371 337.463C413.81 333.655 416.558 330.055 419.589 326.7" stroke="#263238" stroke-width="0.487963" stroke-linecap="round" stroke-linejoin="round"/>
<path d="M412.784 379.124C412.375 374.899 413.103 370.642 414.892 366.792C417.829 361.119 421.148 353.686 422.516 350.748" stroke="#263238" stroke-width="0.487963" stroke-linecap="round" stroke-linejoin="round"/>
<path d="M360.752 275.666C360.752 275.666 360.147 272.168 364.194 266.416C368.241 260.665 370.921 257.335 370.921 257.335C370.921 257.335 374.755 264.959 371.055 270.632C368.307 274.656 365.229 278.443 361.851 281.955L360.752 275.666Z" fill="#1E90FF"/>
<path d="M371.638 296.272C371.638 296.272 371.033 292.774 375.08 287.023C379.127 281.271 381.807 277.942 381.807 277.942C381.807 277.942 385.641 285.565 381.942 291.25C379.192 295.269 376.113 299.052 372.737 302.562L371.638 296.272Z" fill="#1E90FF"/>
<path d="M362.086 281.563C362.086 281.563 361.122 278.199 354.978 274.735C348.834 271.271 345 269.455 345 269.455C345 269.455 344.843 277.986 350.606 281.507C354.825 283.936 359.239 286.009 363.802 287.707L362.086 281.563Z" fill="#1E90FF"/>
<path d="M375.136 305.869C375.136 305.869 373.813 302.573 367.355 299.815C360.898 297.057 356.862 295.622 356.862 295.622C356.862 295.622 357.602 304.12 363.745 307.013C368.197 308.985 372.806 310.583 377.524 311.789L375.136 305.869Z" fill="#1E90FF"/>
<path d="M378.387 334.268C378.387 334.268 377.793 330.77 372.042 326.722C366.29 322.675 362.669 320.422 362.669 320.422C362.669 320.422 361.615 328.886 367.008 332.99C370.947 335.858 375.122 338.39 379.486 340.557L378.387 334.268Z" fill="#1E90FF"/>
<path d="M379.666 341.118C379.666 341.118 378.544 337.754 381.762 331.476C384.98 325.198 387.11 321.532 387.11 321.532C387.11 321.532 391.987 328.527 389.139 334.682C386.994 339.052 384.485 343.234 381.639 347.183L379.666 341.118Z" fill="#1E90FF"/>
<path d="M389.464 369.314C389.464 369.314 389.868 365.794 395.373 361.467C400.878 357.139 404.342 354.639 404.342 354.639C404.342 354.639 405.878 363.036 400.732 367.442C396.963 370.526 392.943 373.29 388.713 375.705L389.464 369.314Z" fill="#1E90FF"/>
<path d="M387.996 360.614C387.996 360.614 387.39 357.117 381.65 353.069C375.91 349.022 372.3 346.768 372.3 346.768C372.3 346.768 371.246 355.233 376.639 359.348C380.581 362.212 384.755 364.743 389.117 366.915L387.996 360.614Z" fill="#1E90FF"/>
<path d="M387.996 379.629C387.996 379.629 388.287 376.086 383.758 370.716C379.228 365.346 376.291 362.251 376.291 362.251C376.291 362.251 373.118 370.167 377.3 375.514C380.365 379.28 383.74 382.783 387.39 385.986L387.996 379.629Z" fill="#1E90FF"/>
<path d="M360.158 274.836C361.035 278.435 362.109 281.983 363.376 285.465C367.042 295.129 372.995 300.746 376.493 309.434C379.991 318.123 376.493 330.736 379.946 342.071C383.399 353.406 389.117 359.079 389.117 367.039C389.117 374.999 386.022 397.141 386.022 397.141" stroke="#263238" stroke-width="0.487963" stroke-linecap="round" stroke-linejoin="round"/>
<path d="M362.546 283.873L356.57 280.745" stroke="#263238" stroke-width="0.487963" stroke-linecap="round" stroke-linejoin="round"/>
<path d="M361.492 279.253L363.017 274.948" stroke="#263238" stroke-width="0.487963" stroke-linecap="round" stroke-linejoin="round"/>
<path d="M376.123 309.076C376.123 309.076 371.134 306.531 366.033 303.997" stroke="#263238" stroke-width="0.487963" stroke-linecap="round" stroke-linejoin="round"/>
<path d="M372.726 302.562C374.197 297.942 376.131 293.484 378.5 289.254" stroke="#263238" stroke-width="0.487963" stroke-linecap="round" stroke-linejoin="round"/>
<path d="M379.083 339.268C375.756 335.058 371.836 331.353 367.445 328.27" stroke="#263238" stroke-width="0.487963" stroke-linecap="round" stroke-linejoin="round"/>
<path d="M380.787 344.022C381.585 340.639 382.661 337.327 384.004 334.122C385.922 329.873 386.247 329.312 386.247 329.312" stroke="#263238" stroke-width="0.487963" stroke-linecap="round" stroke-linejoin="round"/>
<path d="M388.848 373.081C390.792 370.672 392.945 368.44 395.283 366.411C396.77 365.316 398.165 364.101 399.454 362.778" stroke="#263238" stroke-width="0.487963" stroke-linecap="round" stroke-linejoin="round"/>
<path d="M389.117 367.039C387.515 364.455 385.72 361.996 383.747 359.684C381.803 357.563 379.688 355.605 377.423 353.832" stroke="#263238" stroke-width="0.487963" stroke-linecap="round" stroke-linejoin="round"/>
<path d="M387.39 385.986C387.19 383.29 386.272 380.697 384.733 378.474C382.278 375.234 379.385 370.929 378.208 369.236" stroke="#263238" stroke-width="0.487963" stroke-linecap="round" stroke-linejoin="round"/>
<path d="M42.3149 226.829L37.4043 212.803L42.3149 218.757L38.4582 197.713L44.4226 212.803L46.5304 183.329L50.0395 211.391L53.8962 205.785V212.803L58.4593 203.33L56.004 219.811L60.2083 217.008L53.5487 226.123L42.3149 226.829Z" fill="#1E90FF"/>
<path d="M57.7529 223.32H39.512L42.7969 260.149H54.468L57.7529 223.32Z" fill="#263238" stroke="#263238" stroke-width="0.487963" stroke-linecap="round" stroke-linejoin="round"/>
<path d="M91.9701 259.734H29.8253V391.356H91.9701V259.734Z" fill="white" stroke="#263238" stroke-width="0.487963" stroke-linecap="round" stroke-linejoin="round"/>
<path d="M95.3671 259.734H60.8921V391.356H95.3671V259.734Z" fill="white" stroke="#263238" stroke-width="0.487963" stroke-linecap="round" stroke-linejoin="round"/>
<path d="M91.488 259.734H60.8921V391.356H91.488V259.734Z" fill="#263238" stroke="#263238" stroke-width="0.487963" stroke-linecap="round" stroke-linejoin="round"/>
<path d="M88.0461 360.749H60.8921V387.701H88.0461V360.749Z" fill="#1E90FF" stroke="#263238" stroke-width="0.487963" stroke-linecap="round" stroke-linejoin="round"/>
<path d="M88.0461 362.206H60.8921V365.66H88.0461V362.206Z" fill="white" stroke="#263238" stroke-width="0.487963" stroke-linecap="round" stroke-linejoin="round"/>
<path d="M88.0461 382.051H60.8921V385.504H88.0461V382.051Z" fill="white" stroke="#263238" stroke-width="0.487963" stroke-linecap="round" stroke-linejoin="round"/>
<path d="M66.0381 361.31V395.392" stroke="#263238" stroke-width="0.487963" stroke-linecap="round" stroke-linejoin="round"/>
<path d="M75.5117 361.31V395.392" stroke="#263238" stroke-width="0.487963" stroke-linecap="round" stroke-linejoin="round"/>
<path d="M83.8307 361.31V395.392" stroke="#263238" stroke-width="0.487963" stroke-linecap="round" stroke-linejoin="round"/>
<path d="M88.0461 264.622H60.8921V304.255H88.0461V264.622Z" fill="#1E90FF" stroke="#263238" stroke-width="0.487963" stroke-linecap="round" stroke-linejoin="round"/>
<path d="M88.0461 266.282H60.8921V270.206H88.0461V266.282Z" fill="white" stroke="#263238" stroke-width="0.487963" stroke-linecap="round" stroke-linejoin="round"/>
<path d="M88.0461 291.687H60.8921V295.611H88.0461V291.687Z" fill="white" stroke="#263238" stroke-width="0.487963" stroke-linecap="round" stroke-linejoin="round"/>
<path d="M66.0381 265.25V303.986" stroke="#263238" stroke-width="0.487963" stroke-linecap="round" stroke-linejoin="round"/>
<path d="M75.5117 265.25V303.986" stroke="#263238" stroke-width="0.487963" stroke-linecap="round" stroke-linejoin="round"/>
<path d="M83.8307 265.25V303.986" stroke="#263238" stroke-width="0.487963" stroke-linecap="round" stroke-linejoin="round"/>
<path d="M88.0461 312.383H60.8921V352.015H88.0461V312.383Z" fill="#1E90FF" stroke="#263238" stroke-width="0.487963" stroke-linecap="round" stroke-linejoin="round"/>
<path d="M88.0461 314.042H60.8921V317.966H88.0461V314.042Z" fill="white" stroke="#263238" stroke-width="0.487963" stroke-linecap="round" stroke-linejoin="round"/>
<path d="M88.0461 339.447H60.8921V343.371H88.0461V339.447Z" fill="white" stroke="#263238" stroke-width="0.487963" stroke-linecap="round" stroke-linejoin="round"/>
<path d="M66.0381 313.022V351.746" stroke="#263238" stroke-width="0.487963" stroke-linecap="round" stroke-linejoin="round"/>
<path d="M75.5117 313.022V351.746" stroke="#263238" stroke-width="0.487963" stroke-linecap="round" stroke-linejoin="round"/>
<path d="M83.8307 313.022V351.746" stroke="#263238" stroke-width="0.487963" stroke-linecap="round" stroke-linejoin="round"/>
<path d="M91.9589 303.705H60.8921V308.212H91.9589V303.705Z" fill="white" stroke="#263238" stroke-width="0.487963" stroke-linecap="round" stroke-linejoin="round"/>
<path d="M91.9589 351.769H60.8921V356.276H91.9589V351.769Z" fill="white" stroke="#263238" stroke-width="0.487963" stroke-linecap="round" stroke-linejoin="round"/>
<path d="M91.959 259.734V391.345" stroke="#263238" stroke-width="0.487963" stroke-linecap="round" stroke-linejoin="round"/>
<path d="M56.5084 259.734V391.345H60.8921V264.622H91.4207V259.678L56.5084 259.734Z" fill="white" stroke="#263238" stroke-width="0.487963" stroke-linecap="round" stroke-linejoin="round"/>
<path d="M60.8921 264.623V259.734" stroke="#263238" stroke-width="0.487963" stroke-linecap="round" stroke-linejoin="round"/>
<path d="M91.7234 199.271C88.4609 192.982 87.0931 188.475 87.0931 187.432C87.0931 185.369 91.5777 184.136 91.5777 184.136C98.5736 180.436 131.479 185.784 146.289 188.25C154.58 189.696 162.967 190.52 171.38 190.717C171.38 190.717 173.432 189.08 175.865 187.017C178.298 184.954 189.846 171.389 194.375 170.2C198.904 169.012 203.008 171.848 203.008 171.848C203.008 171.848 210.418 176.333 209.174 177.196C207.93 178.059 189.846 193.643 185.316 196.524C180.787 199.406 171.336 198.173 163.106 199.821C156.021 201.233 127.32 202.982 120.739 203.52C115.796 204.693 110.609 204.261 105.928 202.287" fill="white"/>
<path d="M203.086 171.803C203.086 171.803 198.972 168.922 194.453 170.155C189.935 171.389 178.41 184.966 175.943 186.972C173.477 188.979 171.459 190.672 171.459 190.672C163.045 190.475 154.658 189.651 146.368 188.206C131.558 185.739 98.6521 180.358 91.6562 184.091C91.6562 184.091 87.1716 185.324 87.1716 187.387C87.3274 188.541 87.6249 189.67 88.0573 190.751L88.674 190.975C88.674 190.975 96.8919 190.112 114.628 190.538C132.365 190.964 173.387 193.397 176.022 194.349C177.143 194.776 185.092 192.982 193.904 189.865C200.631 184.383 208.535 177.532 209.331 177.05C210.497 176.322 203.086 171.803 203.086 171.803Z" fill="#1E90FF"/>
<path opacity="0.5" d="M203.086 171.803C203.086 171.803 198.972 168.922 194.453 170.155C189.935 171.389 178.41 184.966 175.943 186.972C173.477 188.979 171.459 190.672 171.459 190.672C163.045 190.475 154.658 189.651 146.368 188.206C131.558 185.739 98.6521 180.358 91.6562 184.091C91.6562 184.091 87.1716 185.324 87.1716 187.387C87.3274 188.541 87.6249 189.67 88.0573 190.751L88.674 190.975C88.674 190.975 96.8919 190.112 114.628 190.538C132.365 190.964 173.387 193.397 176.022 194.349C177.143 194.776 185.092 192.982 193.904 189.865C200.631 184.383 208.535 177.532 209.331 177.05C210.497 176.322 203.086 171.803 203.086 171.803Z" fill="white"/>
<path d="M91.7234 199.271C88.4609 192.982 87.0931 188.475 87.0931 187.432C87.0931 185.369 91.5777 184.136 91.5777 184.136C98.5736 180.436 131.479 185.784 146.289 188.25C154.58 189.696 162.967 190.52 171.38 190.717C171.38 190.717 173.432 189.08 175.865 187.017C178.298 184.954 189.846 171.389 194.375 170.2C198.904 169.012 203.008 171.848 203.008 171.848C203.008 171.848 210.418 176.333 209.174 177.196C207.93 178.059 189.846 193.643 185.316 196.524C180.787 199.406 171.336 198.173 163.106 199.821C156.021 201.233 127.32 202.982 120.739 203.52C115.796 204.693 110.609 204.261 105.928 202.287" stroke="#263238" stroke-width="0.487963" stroke-linecap="round" stroke-linejoin="round"/>
<path d="M254.188 235.843C254.932 234.43 256.048 233.248 257.415 232.424C258.783 231.6 260.349 231.166 261.946 231.168H336.726C336.726 231.168 342.13 231.168 340.515 241.437C338.901 251.707 316.725 314.412 311.366 333.371C306.007 352.329 304.874 392.287 304.874 392.287H215.183C215.183 392.287 222.291 296.732 254.188 235.843Z" fill="white"/>
<path opacity="0.16" d="M287.867 231.168H261.946C260.35 231.166 258.783 231.6 257.415 232.424C256.048 233.248 254.932 234.43 254.188 235.843C222.291 296.732 215.105 392.253 215.105 392.253H255.331L265.253 354.571L306.623 363.103C306.915 359.942 307.251 356.724 307.644 353.551L306.736 343.461C306.736 343.461 298.26 334.548 295.591 332.317C292.923 330.086 294.695 326.061 294.246 308.672C293.798 291.283 278.191 278.782 272.384 268.076C266.576 257.369 275.512 250.676 283.539 239.969C286.398 236.101 287.564 233.253 287.867 231.168Z" fill="black"/>
<path d="M254.188 235.843C254.932 234.43 256.048 233.248 257.415 232.424C258.783 231.6 260.349 231.166 261.946 231.168H336.726C336.726 231.168 342.13 231.168 340.515 241.437C338.901 251.707 316.725 314.412 311.366 333.371C306.007 352.329 304.874 392.287 304.874 392.287H215.183C215.183 392.287 222.291 296.732 254.188 235.843Z" stroke="#263238" stroke-width="0.487963" stroke-linecap="round" stroke-linejoin="round"/>
<path d="M323.754 249.005C316.198 266.64 300.211 336.454 297.609 392.253H304.83C304.83 392.253 305.951 352.251 311.321 333.337C316.691 314.423 338.89 251.707 340.471 241.404C342.051 231.1 336.681 231.134 336.681 231.134C336.681 231.134 329.82 234.867 323.754 249.005Z" fill="#263238" stroke="#263238" stroke-width="0.487963" stroke-linecap="round" stroke-linejoin="round"/>
<path d="M192.39 213.756C192.39 213.756 180.461 206.76 175.943 194.428C171.425 182.095 211.315 162.341 228.637 161.108C245.958 159.874 250.847 164.393 261.15 182.084C271.453 199.776 278.427 224.037 273.079 235.966C267.731 247.895 258.683 250.776 265.231 260.631C271.778 270.486 290.322 298.47 289.089 311.632C287.855 324.794 275.108 336.297 256.576 337.553C238.043 338.808 213.378 327.675 192.816 309.524C172.255 291.373 177.591 264.678 184.968 256.046C192.346 247.413 203.478 244.117 204.297 235.484C205.115 226.851 192.39 213.756 192.39 213.756Z" fill="#263238" stroke="#263238" stroke-width="0.487963" stroke-linecap="round" stroke-linejoin="round"/>
<path d="M243.234 194.237C249.569 206.032 257.495 221.829 259.973 231.369C264.3 248.074 242.035 258.591 248.212 266.629" stroke="white" stroke-width="0.487963" stroke-linecap="round" stroke-linejoin="round"/>
<path d="M234.601 178.788C234.601 178.788 237.068 182.992 240.476 189.181" stroke="white" stroke-width="0.487963" stroke-linecap="round" stroke-linejoin="round"/>
<path d="M267.832 208.465C268.563 210.675 269.037 212.962 269.245 215.281" stroke="white" stroke-width="0.487963" stroke-linecap="round" stroke-linejoin="round"/>
<path d="M238.884 172.655C238.884 172.655 258.37 187.051 266.15 204.283" stroke="white" stroke-width="0.487963" stroke-linecap="round" stroke-linejoin="round"/>
<path d="M211.842 183.452C197.929 187.354 177.917 193.688 179.542 197.343" stroke="white" stroke-width="0.487963" stroke-linecap="round" stroke-linejoin="round"/>
<path d="M224.702 180.021C224.702 180.021 221.731 180.761 217.302 181.95" stroke="white" stroke-width="0.487963" stroke-linecap="round" stroke-linejoin="round"/>
<path d="M207.492 172.756C215.462 170.245 223.809 169.144 232.157 169.505" stroke="white" stroke-width="0.487963" stroke-linecap="round" stroke-linejoin="round"/>
<path d="M201.819 175.077C203.079 174.421 204.383 173.851 205.721 173.373" stroke="white" stroke-width="0.487963" stroke-linecap="round" stroke-linejoin="round"/>
<path d="M87.0932 187.432C87.0881 187.51 87.0881 187.589 87.0932 187.667C87.0881 187.589 87.0881 187.51 87.0932 187.432ZM91.7235 199.271C89.8352 195.813 88.3314 192.159 87.2389 188.374C88.3261 192.161 89.8302 195.816 91.7235 199.271ZM87.1156 187.735C87.1156 187.802 87.1156 187.881 87.1156 187.981C87.138 187.881 87.1268 187.802 87.1156 187.735ZM87.1716 188.049C87.1855 188.159 87.208 188.267 87.2389 188.374C87.208 188.267 87.1855 188.159 87.1716 188.049ZM91.7235 199.26C95.9165 207.202 101.133 214.56 107.24 221.145C122.05 237.188 164.833 279.152 168.903 282.034C172.972 284.915 171.784 293.133 168.903 301.362C166.021 309.591 155.326 321.543 155.741 334.682C156.155 347.822 160.225 368.003 159.855 372.117C159.485 376.232 149.193 390.224 149.193 390.224H255.32C255.32 390.224 242.091 373.407 242.091 367.655C242.091 361.904 260.253 288.211 261.072 282.863C261.89 277.516 258.605 273.816 252.024 273.401C245.443 272.986 220.352 267.638 219.118 263.524C217.885 259.409 225.7 243.781 225.7 243.781L201.035 245.014C201.035 245.014 199.801 255.709 198.153 257.772C196.505 259.835 194.039 255.709 188.276 252.839C182.513 249.969 171.459 247.491 167.299 244.195C163.14 240.899 123.698 203.834 123.698 203.834" fill="white"/>
<path d="M173.6 247.368C175.652 250.956 177.704 254.196 177.704 254.196C177.704 254.196 184.621 258.086 186.348 258.086C188.074 258.086 198.456 263.692 198.456 263.692C198.456 263.692 207.111 261.528 204.062 254.173C203.1 252.291 201.885 250.548 200.452 248.994C199.936 252.256 199.106 256.528 198.131 257.75C196.483 259.801 194.016 255.687 188.254 252.817C184.52 250.956 178.477 249.252 173.6 247.368Z" fill="#1E90FF"/>
<path d="M152.478 230.719C139.775 218.959 123.698 203.879 123.698 203.879L114.348 202.534L113.227 203.162C113.227 203.162 139.619 226.515 145.235 229.116C147.508 230.16 149.977 230.707 152.478 230.719Z" fill="#1E90FF"/>
<path d="M165.786 242.895L164.777 241.998C165.293 242.85 165.584 243.388 165.584 243.388L165.786 242.895Z" fill="#1E90FF"/>
<g opacity="0.5">
<path opacity="0.5" d="M173.6 247.368C175.652 250.956 177.704 254.196 177.704 254.196C177.704 254.196 184.621 258.086 186.348 258.086C188.074 258.086 198.456 263.692 198.456 263.692C198.456 263.692 207.111 261.528 204.062 254.173C203.1 252.291 201.885 250.548 200.452 248.994C199.936 252.256 199.106 256.528 198.131 257.75C196.483 259.801 194.016 255.687 188.254 252.817C184.52 250.956 178.477 249.252 173.6 247.368Z" fill="white"/>
<path opacity="0.5" d="M152.478 230.719C139.775 218.959 123.698 203.879 123.698 203.879L114.348 202.534L113.227 203.162C113.227 203.162 139.619 226.515 145.235 229.116C147.508 230.16 149.977 230.707 152.478 230.719Z" fill="white"/>
<path opacity="0.5" d="M165.786 242.895L164.777 241.998C165.293 242.85 165.584 243.388 165.584 243.388L165.786 242.895Z" fill="white"/>
</g>
<path d="M91.7235 199.26C95.9165 207.202 101.133 214.56 107.24 221.145C122.05 237.188 164.833 279.152 168.903 282.034C172.972 284.915 171.784 293.133 168.903 301.362C166.021 309.591 155.326 321.543 155.741 334.682C156.155 347.822 160.225 368.003 159.855 372.117C159.485 376.232 149.193 390.224 149.193 390.224H255.32C255.32 390.224 242.091 373.407 242.091 367.655C242.091 361.904 260.253 288.211 261.072 282.863C261.89 277.516 258.605 273.816 252.024 273.401C245.443 272.986 220.352 267.638 219.118 263.524C217.885 259.409 225.7 243.781 225.7 243.781L201.035 245.014C201.035 245.014 199.801 255.709 198.153 257.772C196.505 259.835 194.039 255.709 188.276 252.839C182.513 249.969 171.459 247.491 167.299 244.195C163.14 240.899 123.698 203.834 123.698 203.834M87.0932 187.432C87.0881 187.51 87.0881 187.589 87.0932 187.667C87.0881 187.589 87.0881 187.51 87.0932 187.432V187.432ZM91.7235 199.271C89.8352 195.813 88.3314 192.159 87.2389 188.374C88.3261 192.161 89.8302 195.816 91.7235 199.271V199.271ZM87.1156 187.735C87.1156 187.802 87.1156 187.881 87.1156 187.981C87.138 187.881 87.1268 187.802 87.1156 187.735V187.735ZM87.1716 188.049C87.1855 188.159 87.208 188.267 87.2389 188.374C87.208 188.267 87.1855 188.159 87.1716 188.049Z" stroke="#263238" stroke-width="0.487963" stroke-linecap="round" stroke-linejoin="round"/>
<path d="M123.698 203.879C123.698 203.879 110.559 204.126 103.226 198.083" stroke="#263238" stroke-width="0.487963" stroke-linecap="round" stroke-linejoin="round"/>
<path d="M219.13 263.524C217.896 259.42 225.711 243.78 225.711 243.78L201.046 245.014C201.046 245.014 199.812 255.709 198.164 257.772C196.516 259.835 194.05 255.709 188.287 252.839C187.85 252.615 187.368 252.402 186.875 252.189L185.383 275.632C185.383 275.632 187.547 298.335 213.49 294.019C223.995 292.27 235.207 282.897 244.882 272.358C234.927 270.531 220.071 266.674 219.13 263.524Z" fill="white"/>
<path d="M218.435 246.886C218.435 246.886 216.943 255.25 215.744 264.499C214.544 273.749 213.659 280.632 213.659 280.632L219.13 263.524L225.296 245.395C225.296 245.395 219.331 245.395 218.435 246.886Z" fill="#1E90FF"/>
<path opacity="0.5" d="M218.435 246.886C218.435 246.886 216.943 255.25 215.744 264.499C214.544 273.749 213.659 280.632 213.659 280.632L219.13 263.524L225.296 245.395C225.296 245.395 219.331 245.395 218.435 246.886Z" fill="white"/>
<path d="M219.13 263.524C217.896 259.42 225.711 243.78 225.711 243.78L201.046 245.014C201.046 245.014 199.812 255.709 198.164 257.772C196.516 259.835 194.05 255.709 188.287 252.839C187.85 252.615 187.368 252.402 186.875 252.189L185.383 275.632C185.383 275.632 187.547 298.335 213.49 294.019C223.995 292.27 235.207 282.897 244.882 272.358C234.927 270.531 220.071 266.674 219.13 263.524Z" stroke="#263238" stroke-width="0.487963" stroke-linecap="round" stroke-linejoin="round"/>
<path d="M198.153 257.772C196.505 259.824 194.039 255.709 188.276 252.839C184.643 251.012 178.858 249.353 174.071 247.559C172.714 244.341 170.921 240.148 169.766 237.614C167.714 233.13 164.418 235.966 164.418 235.966C162.698 234.01 161.309 231.788 160.303 229.385C158.252 224.901 154.956 225.271 150.437 224.452C145.919 223.634 136.446 214.99 136.446 214.99C136.446 214.99 132.017 211.626 130.19 209.956C128.059 214.149 122.958 221.526 111.926 226.134C129.517 244.509 165.203 279.422 168.947 282.045C173.062 284.915 171.829 293.144 168.947 301.373C166.066 309.603 155.37 321.554 155.785 334.694C156.2 347.833 160.27 368.014 159.9 372.129C159.53 375.795 151.323 387.286 149.54 389.753L153.722 390.224H175.495C175.372 379.192 175.383 334.167 182.928 316.229C191.572 295.611 198.153 257.772 198.153 257.772Z" fill="#1E90FF"/>
<path opacity="0.16" d="M188.276 252.839C184.644 251.012 178.858 249.353 174.071 247.559C172.715 244.341 170.921 240.148 169.766 237.614C167.714 233.13 164.418 235.966 164.418 235.966C162.699 234.01 161.309 231.788 160.304 229.385C158.252 224.901 154.956 225.271 150.438 224.452C145.919 223.634 136.446 214.99 136.446 214.99C136.446 214.99 132.017 211.626 130.19 209.956C129.278 211.736 128.193 213.422 126.95 214.99C134.304 221.212 142.421 227.804 145.258 229.116C150.864 231.706 152.175 229.542 156.469 232.143C160.763 234.744 165.551 243.354 165.551 243.354C165.551 243.354 168.152 236.426 170.315 241.191C172.479 245.956 177.67 254.162 177.67 254.162C177.67 254.162 184.587 258.053 186.314 258.053C187.671 258.053 194.319 261.506 197.144 262.997C197.772 259.712 198.12 257.739 198.12 257.739C196.505 259.824 194.039 255.709 188.276 252.839Z" fill="black"/>
<path d="M198.153 257.772C196.505 259.824 194.039 255.709 188.276 252.839C184.643 251.012 178.858 249.353 174.071 247.559C172.714 244.341 170.921 240.148 169.766 237.614C167.714 233.13 164.418 235.966 164.418 235.966C162.698 234.01 161.309 231.788 160.303 229.385C158.252 224.901 154.956 225.271 150.437 224.452C145.919 223.634 136.446 214.99 136.446 214.99C136.446 214.99 132.017 211.626 130.19 209.956C128.059 214.149 122.958 221.526 111.926 226.134C129.517 244.509 165.203 279.422 168.947 282.045C173.062 284.915 171.829 293.144 168.947 301.373C166.066 309.603 155.37 321.554 155.785 334.694C156.2 347.833 160.27 368.014 159.9 372.129C159.53 375.795 151.323 387.286 149.54 389.753L153.722 390.224H175.495C175.372 379.192 175.383 334.167 182.928 316.229C191.572 295.611 198.153 257.772 198.153 257.772Z" stroke="#263238" stroke-width="0.487963" stroke-linecap="round" stroke-linejoin="round"/>
<path d="M198.445 256.337C198.445 256.337 193.332 254.768 190.182 257.526C187.032 260.284 182.334 274.432 179.565 289.781C177.858 298.716 179.036 307.962 182.928 316.184C182.928 316.184 189.397 299.221 191.359 290.958C193.321 282.695 198.445 256.337 198.445 256.337Z" fill="#1E90FF"/>
<path opacity="0.16" d="M188.635 258.837C188.635 258.837 192.334 257.94 193.859 258.456C195.143 259.007 196.343 259.735 197.424 260.62L198.445 256.337C196.914 255.555 195.178 255.269 193.478 255.519C190.933 256.035 188.635 258.837 188.635 258.837Z" fill="black"/>
<path d="M198.445 256.337C198.445 256.337 193.332 254.768 190.182 257.526C187.032 260.284 182.334 274.432 179.565 289.781C177.858 298.716 179.036 307.962 182.928 316.184C182.928 316.184 189.397 299.221 191.359 290.958C193.321 282.695 198.445 256.337 198.445 256.337Z" stroke="#263238" stroke-width="0.487963" stroke-linecap="round" stroke-linejoin="round"/>
<path d="M164.014 257.683L170.596 284.422L155.785 250.687" stroke="#263238" stroke-width="0.487963" stroke-linecap="round" stroke-linejoin="round"/>
<path d="M207.369 390.224H255.331C255.331 390.224 242.102 373.407 242.102 367.655C242.102 361.904 260.264 288.211 261.083 282.863C261.901 277.516 258.616 273.816 252.035 273.401C245.454 272.986 220.363 267.638 219.13 263.524C219.13 263.524 209.667 296.844 206.382 319.469C203.557 338.876 206.483 379.147 207.369 390.224Z" fill="#1E90FF"/>
<path opacity="0.16" d="M252.035 273.401C246.642 273.065 228.828 269.41 221.888 265.845L224.41 271.674C228.981 274.099 233.896 275.808 238.985 276.742C247.338 278.233 255.107 277.942 260.186 285.408L260.432 285.778C260.746 284.343 260.959 283.334 261.027 282.863C261.912 277.516 258.616 273.816 252.035 273.401Z" fill="black"/>
<path d="M207.369 390.224H255.331C255.331 390.224 242.102 373.407 242.102 367.655C242.102 361.904 260.264 288.211 261.083 282.863C261.901 277.516 258.616 273.816 252.035 273.401C245.454 272.986 220.363 267.638 219.13 263.524C219.13 263.524 209.667 296.844 206.382 319.469C203.557 338.876 206.483 379.147 207.369 390.224Z" stroke="#263238" stroke-width="0.487963" stroke-linecap="round" stroke-linejoin="round"/>
<path d="M219.13 263.524C219.13 263.524 206.438 303.885 206.382 319.469C206.382 319.469 224.41 297.64 226.765 282.303C229.119 266.966 219.13 263.524 219.13 263.524Z" fill="#1E90FF"/>
<path opacity="0.16" d="M216.943 268.681C218.85 268.617 220.744 269.019 222.461 269.851C224.178 270.683 225.667 271.921 226.798 273.457C226.798 273.457 224.309 266.136 219.13 263.524L216.943 268.681Z" fill="black"/>
<path d="M219.13 263.524C219.13 263.524 206.438 303.885 206.382 319.469C206.382 319.469 224.41 297.64 226.765 282.303C229.119 266.966 219.13 263.524 219.13 263.524Z" stroke="#263238" stroke-width="0.487963" stroke-linecap="round" stroke-linejoin="round"/>
<path d="M354.619 382.634C354.619 382.634 363.914 383.015 370.001 383.889C374.061 384.44 378.148 384.765 382.244 384.865C382.244 384.865 378.881 378.071 375.293 376.153C371.705 374.236 365.203 370.806 359.754 371.568C354.305 372.33 346.513 377.824 347.164 379.573C347.814 381.322 350.718 382.107 354.619 382.634Z" fill="white"/>
<path d="M354.619 382.634C354.619 382.634 363.914 383.015 370.001 383.889C374.061 384.44 378.148 384.765 382.244 384.865C382.244 384.865 378.881 378.071 375.293 376.153C371.705 374.236 365.203 370.806 359.754 371.568C354.305 372.33 346.513 377.824 347.164 379.573C347.814 381.322 350.718 382.107 354.619 382.634Z" fill="#1E90FF"/>
<path opacity="0.5" d="M354.619 382.634C354.619 382.634 363.914 383.015 370.001 383.889C374.061 384.44 378.148 384.765 382.244 384.865C382.244 384.865 378.881 378.071 375.293 376.153C371.705 374.236 365.203 370.806 359.754 371.568C354.305 372.33 346.513 377.824 347.164 379.573C347.814 381.322 350.718 382.107 354.619 382.634Z" fill="white"/>
<path d="M354.619 382.634C354.619 382.634 363.914 383.015 370.001 383.889C374.061 384.44 378.148 384.765 382.244 384.865C382.244 384.865 378.881 378.071 375.293 376.153C371.705 374.236 365.203 370.806 359.754 371.568C354.305 372.33 346.513 377.824 347.164 379.573C347.814 381.322 350.718 382.107 354.619 382.634Z" stroke="#263238" stroke-width="0.487963" stroke-linecap="round" stroke-linejoin="round"/>
<path d="M370.057 379.853C370.057 379.853 377.423 376.03 379.262 376.086C381.101 376.142 393.321 384.405 392.716 385.728C392.305 386.341 391.711 386.81 391.019 387.068C390.327 387.325 389.571 387.359 388.859 387.163C387.502 386.524 379.273 383.026 379.273 383.026L373.892 384.293L370.057 379.853Z" fill="white"/>
<path d="M370.057 379.853C370.057 379.853 377.423 376.03 379.262 376.086C381.101 376.142 393.321 384.405 392.716 385.728C392.11 387.051 389.218 388.127 388.859 387.163C388.5 386.199 379.273 383.026 379.273 383.026L373.892 384.293L370.057 379.853Z" fill="#1E90FF"/>
<path opacity="0.5" d="M370.057 379.853C370.057 379.853 377.423 376.03 379.262 376.086C381.101 376.142 393.321 384.405 392.716 385.728C392.11 387.051 389.218 388.127 388.859 387.163C388.5 386.199 379.273 383.026 379.273 383.026L373.892 384.293L370.057 379.853Z" fill="white"/>
<path d="M370.057 379.853C370.057 379.853 377.423 376.03 379.262 376.086C381.101 376.142 393.321 384.405 392.716 385.728C392.305 386.341 391.711 386.81 391.019 387.068C390.327 387.325 389.571 387.359 388.859 387.163C387.502 386.524 379.273 383.026 379.273 383.026L373.892 384.293L370.057 379.853Z" stroke="#263238" stroke-width="0.487963" stroke-linecap="round" stroke-linejoin="round"/>
<path d="M364.799 373.564C364.799 373.564 374.62 373.25 376.571 374.236C378.522 375.223 387.334 390.336 386.011 391.435C384.688 392.533 381.033 392.208 381.146 390.986C381.258 389.764 373.028 381.669 373.028 381.669L366.627 380.268L364.799 373.564Z" fill="white"/>
<path d="M364.799 373.564C364.799 373.564 374.62 373.25 376.571 374.236C378.522 375.223 387.334 390.336 386.011 391.435C384.688 392.533 381.033 392.208 381.146 390.986C381.258 389.764 373.028 381.669 373.028 381.669L366.627 380.268L364.799 373.564Z" fill="#1E90FF"/>
<path opacity="0.5" d="M364.799 373.564C364.799 373.564 374.62 373.25 376.571 374.236C378.522 375.223 387.334 390.336 386.011 391.435C384.688 392.533 381.033 392.208 381.146 390.986C381.258 389.764 373.028 381.669 373.028 381.669L366.627 380.268L364.799 373.564Z" fill="white"/>
<path d="M364.799 373.564C364.799 373.564 374.62 373.25 376.571 374.236C378.522 375.223 387.334 390.336 386.011 391.435C384.688 392.533 381.033 392.208 381.146 390.986C381.258 389.764 373.028 381.669 373.028 381.669L366.627 380.268L364.799 373.564Z" stroke="#263238" stroke-width="0.487963" stroke-linecap="round" stroke-linejoin="round"/>
<path d="M358.981 371.534C358.981 371.534 368.925 371.209 370.898 372.218C372.872 373.227 381.796 388.508 380.451 389.629C379.105 390.751 375.428 390.403 375.54 389.17C375.652 387.937 367.322 379.741 367.322 379.741L360.842 378.317L358.981 371.534Z" fill="white"/>
<path d="M358.981 371.534C358.981 371.534 368.925 371.209 370.898 372.218C372.872 373.227 381.796 388.508 380.451 389.629C379.105 390.751 375.428 390.403 375.54 389.17C375.652 387.937 367.322 379.741 367.322 379.741L360.842 378.317L358.981 371.534Z" fill="#1E90FF"/>
<path opacity="0.5" d="M358.981 371.534C358.981 371.534 368.925 371.209 370.898 372.218C372.872 373.227 381.796 388.508 380.451 389.629C379.105 390.751 375.428 390.403 375.54 389.17C375.652 387.937 367.322 379.741 367.322 379.741L360.842 378.317L358.981 371.534Z" fill="white"/>
<path d="M358.981 371.534C358.981 371.534 368.925 371.209 370.898 372.218C372.872 373.227 381.796 388.508 380.451 389.629C379.105 390.751 375.428 390.403 375.54 389.17C375.652 387.937 367.322 379.741 367.322 379.741L360.842 378.317L358.981 371.534Z" stroke="#263238" stroke-width="0.487963" stroke-linecap="round" stroke-linejoin="round"/>
<path d="M245.914 314.558C253.111 325.646 267.563 353.742 271.778 356.903C278.359 361.836 322.353 373.81 326.591 377.084C330.829 380.358 330.537 383.643 334.551 384.842C338.565 386.042 353.61 389.484 359.351 390.022C365.091 390.56 362.523 387.006 362.523 387.006L352.736 380.279L361.268 378.171C361.268 378.171 369.822 388.463 371.425 389.024C373.028 389.585 375.854 389.024 375.674 387.757C375.36 385.728 366.234 369.124 362.994 368.418C359.754 367.711 340.089 370.436 340.089 370.436C340.089 370.436 298.843 342.62 298.103 341.634C298.103 341.634 295.636 334.638 293.618 331.756C291.6 328.875 290.322 329.705 290.322 329.705C290.322 329.705 291.152 325.994 289.918 324.76L283.337 318.179L283.102 318.493C281.981 316.251 280.86 313.695 279.626 310.78C276.184 302.674 263.998 279.926 261.946 276.641C260.41 274.186 247.539 272.426 241.014 271.686" fill="#1E90FF"/>
<path opacity="0.16" d="M274.57 315.264C279.951 320.04 278.158 320.04 276.958 324.233C275.758 328.427 277.855 322.742 282.934 323.045C288.013 323.348 286.521 329.906 285.916 331.106C285.311 332.306 292.194 333.797 290.995 336.476C289.795 339.156 282.934 343.046 279.055 346.937C275.175 350.827 289.201 340.658 293.977 340.367C295.434 340.266 296.634 340.456 297.643 340.434C296.585 337.434 295.225 334.549 293.585 331.824C291.522 328.942 290.288 329.772 290.288 329.772C290.288 329.772 291.118 326.061 289.885 324.828L283.304 318.247L283.068 318.561C281.947 316.318 280.826 313.762 279.593 310.847C276.151 302.741 263.964 279.993 261.912 276.708C260.376 274.253 247.506 272.493 240.981 271.753L241.575 276.944L241.721 277.056C241.721 277.056 249.782 278.547 252.472 278.85C255.163 279.152 258.448 281.529 258.145 283.334C257.843 285.139 250.084 293.189 252.472 293.795C254.86 294.4 257.551 287.819 260.242 288.716C262.933 289.613 269.155 310.488 274.57 315.264Z" fill="black"/>
<path d="M245.914 314.558C253.111 325.646 267.563 353.742 271.778 356.903C278.359 361.836 322.353 373.81 326.591 377.084C330.829 380.358 330.537 383.643 334.551 384.842C338.565 386.042 353.61 389.484 359.351 390.022C365.091 390.56 362.523 387.006 362.523 387.006L352.736 380.279L361.268 378.171C361.268 378.171 369.822 388.463 371.425 389.024C373.028 389.585 375.854 389.024 375.674 387.757C375.36 385.728 366.234 369.124 362.994 368.418C359.754 367.711 340.089 370.436 340.089 370.436C340.089 370.436 298.843 342.62 298.103 341.634C298.103 341.634 295.636 334.638 293.618 331.756C291.6 328.875 290.322 329.705 290.322 329.705C290.322 329.705 291.152 325.994 289.918 324.76L283.337 318.179L283.102 318.493C281.981 316.251 280.86 313.695 279.626 310.78C276.184 302.674 263.998 279.926 261.946 276.641C260.41 274.186 247.539 272.426 241.014 271.686" stroke="#263238" stroke-width="0.487963" stroke-linecap="round" stroke-linejoin="round"/>
<path d="M246.026 299.344C245.723 300.353 245.465 301.362 245.263 302.394" stroke="#263238" stroke-width="0.487963" stroke-linecap="round" stroke-linejoin="round"/>
<path d="M256.923 280.789C253.4 284.805 250.429 289.273 248.089 294.075" stroke="#263238" stroke-width="0.487963" stroke-linecap="round" stroke-linejoin="round"/>
<path d="M273.393 344.448C276.42 339.963 281.241 334.279 286.555 332.653" stroke="#263238" stroke-width="0.487963" stroke-linecap="round" stroke-linejoin="round"/>
<path d="M270.041 349.964C270.041 349.964 270.579 348.91 271.543 347.318" stroke="#263238" stroke-width="0.487963" stroke-linecap="round" stroke-linejoin="round"/>
<path d="M270.041 342.878C270.041 342.878 275.545 329.11 281.05 325.568C286.555 322.025 283.405 329.11 283.405 329.11" stroke="#263238" stroke-width="0.487963" stroke-linecap="round" stroke-linejoin="round"/>
<path d="M326.591 377.095C330.84 380.38 330.537 383.654 334.551 384.853C338.564 386.053 353.61 389.495 359.35 390.033C365.091 390.571 362.523 387.017 362.523 387.017L352.736 380.29L361.268 378.183C361.268 378.183 369.822 388.475 371.425 389.035C373.028 389.596 376.078 389.798 375.674 387.768C374.889 383.844 366.234 369.135 362.994 368.429C359.754 367.722 340.089 370.447 340.089 370.447C340.089 370.447 302.52 344.661 298.405 341.869C282.452 343.405 274.861 351.757 271.666 356.769L271.778 356.859C278.359 361.836 322.353 373.81 326.591 377.095Z" fill="white"/>
<path d="M375.663 387.813C373.623 382.824 366.223 369.18 362.983 368.474C359.743 367.767 340.078 370.492 340.078 370.492C340.078 370.492 302.509 344.705 298.394 341.914C294.207 342.278 290.098 343.272 286.207 344.862C292.138 348.226 331.67 370.649 336.659 371.646C341.95 372.768 359.608 369.864 362.714 371.949C364.687 373.272 370.562 382.589 374.531 389.203C375.663 389.035 376.078 388.822 375.663 387.813Z" fill="#1E90FF"/>
<path opacity="0.5" d="M375.663 387.813C372.479 380.672 366.223 369.18 362.983 368.474C359.743 367.767 340.078 370.492 340.078 370.492C340.078 370.492 302.509 344.705 298.394 341.914C294.207 342.278 290.098 343.272 286.207 344.862C292.138 348.226 331.67 370.649 336.659 371.646C341.95 372.768 359.608 369.864 362.714 371.949C364.687 373.272 370.562 382.589 374.531 389.203C375.663 389.035 376.112 388.811 375.663 387.813Z" fill="white"/>
<path d="M326.591 377.095C330.84 380.38 330.537 383.654 334.551 384.853C338.565 386.053 353.61 389.495 359.35 390.033C365.091 390.571 362.523 387.017 362.523 387.017L352.736 380.29L361.268 378.183C361.268 378.183 369.822 388.475 371.425 389.035C373.028 389.596 376.078 389.798 375.674 387.768C374.889 383.844 366.234 369.135 362.994 368.429C359.754 367.722 340.089 370.447 340.089 370.447C340.089 370.447 302.52 344.661 298.405 341.869C282.452 343.405 274.861 351.757 271.666 356.769L271.778 356.859C278.359 361.836 322.353 373.81 326.591 377.095Z" stroke="#263238" stroke-width="0.487963" stroke-linecap="round" stroke-linejoin="round"/>
<path d="M227.505 181.322L193.736 195.415C193.327 201.349 191.857 207.163 189.397 212.579C185.406 221.021 187.738 236.998 191.572 245.619C195.406 254.241 212.302 250.866 218.48 249.79C222.669 248.993 226.773 247.795 230.734 246.213C232.537 246.908 234.488 247.133 236.402 246.866C238.316 246.6 240.131 245.85 241.676 244.689C241.676 244.689 223.603 193.957 227.505 181.322Z" fill="white"/>
<path d="M227.505 181.322L193.736 195.415C193.327 201.349 191.857 207.163 189.397 212.579C185.406 221.021 187.738 236.998 191.572 245.619C192.214 247.006 193.247 248.174 194.543 248.983V248.332C194.543 248.332 188.276 232.805 189.464 223.847C190.653 214.889 195.743 210.393 196.337 204.731C196.931 199.069 196.629 196.379 207.986 192.197C219.343 188.015 224.108 184.136 225.296 188.307C226.484 192.477 231.272 219.967 234.557 226.537C237.842 233.107 237.539 239.991 232.471 242.962C227.35 246.037 221.862 248.455 216.136 250.16L218.524 249.745C222.714 248.948 226.818 247.75 230.778 246.169C232.582 246.864 234.533 247.088 236.447 246.822C238.361 246.555 240.176 245.805 241.721 244.644C241.721 244.644 223.603 193.957 227.505 181.322Z" fill="#1E90FF"/>
<path opacity="0.5" d="M227.505 181.322L193.736 195.415C193.327 201.349 191.857 207.163 189.397 212.579C185.406 221.021 187.738 236.998 191.572 245.619C192.214 247.006 193.247 248.174 194.543 248.983V248.332C194.543 248.332 188.276 232.805 189.464 223.847C190.653 214.889 195.743 210.393 196.337 204.731C196.931 199.069 196.629 196.379 207.986 192.197C219.343 188.015 224.108 184.136 225.296 188.307C226.484 192.477 231.272 219.967 234.557 226.537C237.842 233.107 237.539 239.991 232.471 242.962C227.35 246.037 221.862 248.455 216.136 250.16L218.524 249.745C222.714 248.948 226.818 247.75 230.778 246.169C232.582 246.864 234.533 247.088 236.447 246.822C238.361 246.555 240.176 245.805 241.721 244.644C241.721 244.644 223.603 193.957 227.505 181.322Z" fill="white"/>
<path d="M227.505 181.322L193.736 195.415C193.327 201.349 191.857 207.163 189.397 212.579C185.406 221.021 187.738 236.998 191.572 245.619C195.406 254.241 212.302 250.866 218.48 249.79C222.669 248.993 226.773 247.795 230.734 246.213C232.537 246.908 234.488 247.133 236.402 246.866C238.316 246.6 240.131 245.85 241.676 244.689C241.676 244.689 223.603 193.957 227.505 181.322Z" stroke="#263238" stroke-width="0.487963" stroke-linecap="round" stroke-linejoin="round"/>
<path d="M210.441 203.42C210.533 205.405 210.286 207.391 209.712 209.294C208.815 211.537 200.351 220.349 200.609 221.302C200.866 222.255 201.629 225.315 203.131 225.607" stroke="#263238" stroke-width="0.487963" stroke-linecap="round" stroke-linejoin="round"/>
<path d="M219.825 211.301C221.002 208.947 224.87 211.245 224.814 216.548" stroke="#263238" stroke-width="0.487963" stroke-linecap="round" stroke-linejoin="round"/>
<path d="M200.653 204.372C200.653 204.372 203.95 202.926 206.898 208.263" stroke="#263238" stroke-width="0.487963" stroke-linecap="round" stroke-linejoin="round"/>
<path d="M215.138 219.071C218.947 219.262 222.569 220.782 225.374 223.365" stroke="#263238" stroke-width="0.243981" stroke-linecap="round" stroke-linejoin="round"/>
<path d="M196.673 212.063C198.643 212.326 200.566 212.858 202.391 213.644" stroke="#263238" stroke-width="0.243981" stroke-linecap="round" stroke-linejoin="round"/>
<path d="M210.071 198.442C209.2 197.981 208.235 197.73 207.25 197.706C206.266 197.683 205.289 197.889 204.398 198.307C201.382 199.753 199.532 201.345 199.734 199.496C199.936 197.646 203.479 195.605 204.544 195.336C205.609 195.067 210.374 194.327 210.071 198.442Z" fill="#263238"/>
<path d="M218.524 194.26C221.667 196.803 224.164 200.053 225.812 203.745C228.054 209.35 229.825 203.229 228.054 199.563C226.283 195.897 221.159 191.995 218.524 194.26Z" fill="#263238"/>
<path d="M242.169 254.274C242.169 256.887 240.689 259.006 238.873 259.006C237.057 259.006 235.588 256.887 235.588 254.274C235.588 251.662 237.057 245.014 238.873 245.014C240.689 245.014 242.169 251.662 242.169 254.274Z" fill="#1E90FF" stroke="#263238" stroke-width="0.487963" stroke-linecap="round" stroke-linejoin="round"/>
<path d="M220.116 210.281C219.987 210.623 219.886 210.976 219.814 211.335C219.488 212.994 219.163 216.458 219.814 216.604C220.464 216.75 222.056 213.51 222.336 211.85C222.399 211.525 222.437 211.195 222.448 210.864C221.683 210.624 220.904 210.429 220.116 210.281Z" fill="#263238"/>
<path d="M200.99 204.047C200.89 204.34 200.811 204.64 200.754 204.944C200.418 206.604 200.429 210.247 201.135 210.382C201.842 210.516 202.996 207.108 203.322 205.449C203.403 205.046 203.448 204.637 203.456 204.227C202.654 204.006 201.816 203.945 200.99 204.047Z" fill="#263238"/>
<path d="M219.825 211.357L220.946 209.272C222.724 209.618 224.334 210.55 225.52 211.918" stroke="#263238" stroke-width="0.365972" stroke-linecap="round" stroke-linejoin="round"/>
<path d="M200.99 204.047L202.111 202.736C202.111 202.736 202.593 202.5 205.239 203.7" stroke="#263238" stroke-width="0.365972" stroke-linecap="round" stroke-linejoin="round"/>
<path d="M196.741 234.453C196.741 234.453 198.624 230.988 201.147 230.988C203.669 230.988 205.553 236.65 205.553 236.65" stroke="#263238" stroke-width="0.487963" stroke-linecap="round" stroke-linejoin="round"/>
<path d="M115.559 383.856C113.121 383.734 110.727 383.164 108.496 382.174C108.185 382.059 107.9 381.882 107.66 381.653C107.419 381.425 107.228 381.15 107.097 380.845C106.967 380.54 106.899 380.212 106.899 379.88C106.899 379.549 106.967 379.221 107.098 378.916C107.229 378.611 107.421 378.336 107.661 378.108C107.902 377.88 108.186 377.703 108.498 377.588C108.809 377.474 109.14 377.423 109.471 377.441C109.802 377.458 110.127 377.543 110.424 377.689C112.666 378.642 115.57 379.236 116.344 378.9C117.768 377.308 119.954 367.689 117.128 363.047C116.489 362.016 115.895 361.825 115.503 361.78C113.9 361.556 111.523 363.204 110.682 364.023C110.448 364.243 110.173 364.416 109.872 364.53C109.571 364.645 109.251 364.699 108.929 364.69C108.607 364.68 108.29 364.608 107.997 364.476C107.703 364.344 107.438 364.156 107.218 363.922C106.997 363.688 106.824 363.412 106.71 363.112C106.595 362.811 106.541 362.49 106.551 362.169C106.56 361.847 106.633 361.53 106.764 361.237C106.896 360.943 107.084 360.678 107.319 360.457C107.756 360.031 111.803 356.388 116.119 356.971C117.19 357.127 118.21 357.528 119.101 358.142C119.991 358.757 120.728 359.568 121.254 360.513C125.414 367.296 122.566 380.201 119.371 382.757C118.26 383.542 116.917 383.93 115.559 383.856Z" fill="white"/>
<path d="M118.844 362.307C118.55 361.611 118.089 360.997 117.503 360.52C116.917 360.043 116.222 359.718 115.48 359.572C112.678 359.123 110.043 361.937 109.751 362.251C109.483 362.574 109.318 362.969 109.276 363.387C109.234 363.804 109.318 364.225 109.516 364.594C109.957 364.506 110.365 364.296 110.693 363.989C111.534 363.204 113.911 361.556 115.514 361.747C115.906 361.747 116.501 361.982 117.14 363.014C119.965 367.61 117.779 377.274 116.355 378.866C115.581 379.203 112.689 378.609 110.435 377.656C110.158 377.539 109.862 377.474 109.561 377.465C109.581 377.772 109.678 378.07 109.843 378.33C110.007 378.59 110.234 378.806 110.503 378.956C111.92 379.713 113.484 380.157 115.088 380.257C116.003 380.301 116.9 379.987 117.588 379.382C119.696 377.443 121.557 367.521 118.844 362.307Z" fill="#1E90FF"/>
<path opacity="0.5" d="M118.844 362.307C118.55 361.611 118.089 360.997 117.503 360.52C116.917 360.043 116.222 359.718 115.48 359.572C112.678 359.123 110.043 361.937 109.751 362.251C109.483 362.574 109.318 362.969 109.276 363.387C109.234 363.804 109.318 364.225 109.516 364.594C109.957 364.506 110.365 364.296 110.693 363.989C111.534 363.204 113.911 361.556 115.514 361.747C115.906 361.747 116.501 361.982 117.14 363.014C119.965 367.61 117.779 377.274 116.355 378.866C115.581 379.203 112.689 378.609 110.435 377.656C110.158 377.539 109.862 377.474 109.561 377.465C109.581 377.772 109.678 378.07 109.843 378.33C110.007 378.59 110.234 378.806 110.503 378.956C111.92 379.713 113.484 380.157 115.088 380.257C116.003 380.301 116.9 379.987 117.588 379.382C119.696 377.443 121.557 367.521 118.844 362.307Z" fill="white"/>
<path d="M115.559 383.856C113.121 383.734 110.727 383.164 108.496 382.174C108.185 382.059 107.9 381.882 107.66 381.653C107.419 381.425 107.228 381.15 107.097 380.845C106.967 380.54 106.899 380.212 106.899 379.88C106.899 379.549 106.967 379.221 107.098 378.916C107.229 378.611 107.421 378.336 107.661 378.108C107.902 377.88 108.186 377.703 108.498 377.588C108.809 377.474 109.14 377.423 109.471 377.441C109.802 377.458 110.127 377.543 110.424 377.689C112.666 378.642 115.57 379.236 116.344 378.9C117.768 377.308 119.954 367.689 117.128 363.047C116.489 362.016 115.895 361.825 115.503 361.78C113.9 361.556 111.523 363.204 110.682 364.023C110.448 364.243 110.173 364.416 109.872 364.53C109.571 364.645 109.251 364.699 108.929 364.69C108.607 364.68 108.29 364.608 107.997 364.476C107.703 364.344 107.438 364.156 107.218 363.922C106.997 363.688 106.824 363.412 106.71 363.112C106.595 362.811 106.541 362.49 106.551 362.169C106.56 361.847 106.633 361.53 106.764 361.237C106.896 360.943 107.084 360.678 107.319 360.457C107.756 360.031 111.803 356.388 116.119 356.971C117.19 357.127 118.21 357.528 119.101 358.142C119.991 358.757 120.728 359.568 121.254 360.513C125.414 367.296 122.566 380.201 119.371 382.757C118.26 383.542 116.917 383.93 115.559 383.856V383.856Z" stroke="#263238" stroke-width="0.487963" stroke-linecap="round" stroke-linejoin="round"/>
<path d="M111.276 354.93H84.3127V390.717H111.276V354.93Z" fill="white"/>
<path d="M95.356 354.93H84.3127V390.717H95.356V354.93Z" fill="#1E90FF"/>
<path opacity="0.5" d="M95.356 354.93H84.3127V390.717H95.356V354.93Z" fill="white"/>
<path d="M111.276 354.93H84.3127V390.717H111.276V354.93Z" stroke="#263238" stroke-width="0.487963" stroke-linecap="round" stroke-linejoin="round"/>
<path d="M259.446 390.224H144.26L140.504 326.902C140.4 326.288 140.431 325.659 140.594 325.058C140.757 324.457 141.048 323.898 141.448 323.421C141.848 322.943 142.346 322.558 142.909 322.292C143.472 322.026 144.086 321.885 144.708 321.879H258.953C259.579 321.878 260.198 322.015 260.766 322.278C261.335 322.541 261.839 322.925 262.244 323.404C262.648 323.882 262.943 324.443 263.109 325.047C263.274 325.651 263.306 326.284 263.202 326.902L259.446 390.224Z" fill="#263238" stroke="#263238" stroke-width="0.487963" stroke-linecap="round" stroke-linejoin="round"/>
<path d="M149.933 323.393H258.123C258.734 323.386 259.339 323.514 259.896 323.766C260.453 324.018 260.948 324.389 261.346 324.852C261.744 325.316 262.037 325.861 262.202 326.449C262.368 327.038 262.403 327.655 262.305 328.258" stroke="white" stroke-width="0.487963" stroke-linecap="round" stroke-linejoin="round"/>
<path d="M141.345 327.26C141.435 326.201 141.922 325.214 142.707 324.497C143.493 323.78 144.519 323.386 145.583 323.393" stroke="white" stroke-width="0.487963" stroke-linecap="round" stroke-linejoin="round"/>
<path d="M259.928 384.057H143.778V390.224H259.928V384.057Z" fill="white" stroke="#263238" stroke-width="0.487963" stroke-linecap="round" stroke-linejoin="round"/>
<path d="M201.438 361.231C205.983 361.231 209.667 359.022 209.667 356.298C209.667 353.574 205.983 351.365 201.438 351.365C196.893 351.365 193.209 353.574 193.209 356.298C193.209 359.022 196.893 361.231 201.438 361.231Z" fill="white" stroke="#263238" stroke-width="0.487963" stroke-linecap="round" stroke-linejoin="round"/>
<path d="M435.117 389.495H2.5144V400H435.117V389.495Z" fill="#263238"/>
<path d="M322.947 0H114.83C107.815 0 102.128 5.68711 102.128 12.7025V132.115C102.128 139.13 107.815 144.818 114.83 144.818H322.947C329.963 144.818 335.65 139.13 335.65 132.115V12.7025C335.65 5.68711 329.963 0 322.947 0Z" fill="#1E90FF"/>
<path d="M224.38 83.2223C243.259 80.1884 256.103 62.425 253.069 43.5467C250.035 24.6684 232.272 11.8241 213.393 14.858C194.515 17.892 181.671 35.6553 184.705 54.5336C187.739 73.4119 205.502 86.2563 224.38 83.2223Z" fill="#263238"/>
<path d="M218.625 55.4403L207.089 70.2506C206.696 70.8671 206.157 71.3764 205.519 71.7326C204.881 72.0888 204.164 72.2807 203.434 72.2911C202.431 72.3047 201.464 71.9219 200.743 71.226C200.376 70.8896 200.086 70.4782 199.893 70.0196C199.699 69.5611 199.607 69.0663 199.622 68.5689C199.658 67.4549 200.051 66.382 200.743 65.5082L213.894 49.2404L201.561 32.9615C200.988 32.1975 200.674 31.2706 200.665 30.3156C200.662 29.7461 200.777 29.1821 201.002 28.6592C201.228 28.1363 201.56 27.6658 201.976 27.2773C202.367 26.8689 202.837 26.5441 203.358 26.3225C203.878 26.1008 204.438 25.9871 205.003 25.988C205.728 25.9998 206.437 26.1926 207.068 26.5491C207.698 26.9055 208.23 27.4141 208.613 28.0285L219.758 42.7042L230.969 28.2751C231.37 27.602 231.93 27.038 232.601 26.6332C233.272 26.2284 234.032 25.9953 234.814 25.9544C235.3 25.9532 235.781 26.0521 236.226 26.245C236.672 26.4379 237.073 26.7206 237.404 27.0755C237.758 27.4082 238.039 27.8095 238.232 28.2548C238.425 28.7001 238.525 29.1801 238.525 29.6654C238.513 30.5337 238.214 31.3736 237.673 32.0534L224.478 48.9377L237.225 65.7548C237.827 66.5065 238.163 67.4374 238.178 68.4007C238.181 68.9577 238.064 69.5089 237.834 70.0161C237.603 70.5232 237.266 70.9743 236.844 71.3381C236.021 72.1291 234.924 72.5711 233.783 72.5713C233.055 72.5623 232.341 72.3708 231.707 72.0143C231.072 71.6578 230.537 71.1478 230.15 70.5309L218.625 55.4403Z" fill="white"/>
<path d="M284.851 119.738H152.882C150.205 119.738 147.639 118.675 145.747 116.782C143.854 114.89 142.791 112.324 142.791 109.647C142.791 106.971 143.854 104.405 145.747 102.513C147.639 100.62 150.205 99.5572 152.882 99.5572H284.851C287.527 99.5572 290.093 100.62 291.986 102.513C293.878 104.405 294.941 106.971 294.941 109.647C294.941 112.324 293.878 114.89 291.986 116.782C290.093 118.675 287.527 119.738 284.851 119.738Z" fill="white"/>
<path d="M170.966 112.899C170.877 112.899 170.79 112.881 170.709 112.846C170.628 112.811 170.555 112.761 170.495 112.697C170.428 112.631 170.376 112.552 170.341 112.466C170.307 112.379 170.29 112.286 170.293 112.192C170.293 112.035 170.335 111.88 170.416 111.744L171.425 110.174H169.362C169.267 110.179 169.172 110.164 169.083 110.129C168.994 110.094 168.913 110.041 168.847 109.973C168.731 109.838 168.668 109.667 168.668 109.49C168.668 109.314 168.731 109.143 168.847 109.008C168.913 108.94 168.994 108.887 169.083 108.852C169.172 108.817 169.267 108.802 169.362 108.807L171.392 108.863L170.495 107.405C170.405 107.256 170.355 107.086 170.349 106.912C170.346 106.818 170.363 106.725 170.398 106.639C170.432 106.552 170.484 106.473 170.551 106.407C170.614 106.343 170.689 106.292 170.771 106.258C170.854 106.223 170.943 106.205 171.033 106.205C171.158 106.204 171.282 106.239 171.387 106.307C171.493 106.374 171.576 106.472 171.627 106.587L172.614 108.347L173.555 106.665C173.615 106.534 173.709 106.422 173.827 106.341C173.946 106.26 174.085 106.213 174.228 106.205C174.316 106.205 174.403 106.223 174.484 106.258C174.565 106.293 174.638 106.344 174.699 106.407C174.765 106.469 174.817 106.544 174.851 106.627C174.886 106.71 174.903 106.799 174.901 106.889C174.899 107.049 174.853 107.204 174.766 107.338L173.78 108.919L175.831 108.863C175.927 108.857 176.022 108.872 176.111 108.907C176.2 108.942 176.281 108.995 176.347 109.064C176.462 109.199 176.526 109.37 176.526 109.546C176.526 109.723 176.462 109.894 176.347 110.029C176.281 110.097 176.2 110.151 176.111 110.186C176.022 110.221 175.927 110.236 175.831 110.23H173.757L174.676 111.665C174.78 111.839 174.838 112.035 174.845 112.237C174.848 112.328 174.833 112.419 174.8 112.503C174.767 112.588 174.718 112.665 174.654 112.731C174.595 112.793 174.524 112.844 174.445 112.878C174.366 112.913 174.281 112.931 174.194 112.932C174.056 112.929 173.921 112.886 173.806 112.809C173.69 112.731 173.6 112.622 173.544 112.495L172.614 110.847L171.683 112.495C171.616 112.625 171.512 112.732 171.385 112.804C171.257 112.876 171.111 112.909 170.966 112.899Z" fill="black"/>
<path d="M181.258 112.899C181.17 112.899 181.082 112.881 181.001 112.846C180.921 112.811 180.847 112.761 180.787 112.697C180.72 112.631 180.668 112.552 180.634 112.466C180.599 112.379 180.582 112.286 180.585 112.192C180.585 112.035 180.627 111.88 180.708 111.744L181.717 110.174H179.654C179.559 110.179 179.464 110.164 179.375 110.129C179.286 110.094 179.205 110.041 179.139 109.973C179.023 109.838 178.96 109.667 178.96 109.49C178.96 109.314 179.023 109.143 179.139 109.008C179.205 108.94 179.286 108.887 179.375 108.852C179.464 108.817 179.559 108.802 179.654 108.807L181.684 108.863L180.731 107.349C180.641 107.2 180.591 107.03 180.585 106.856C180.582 106.762 180.599 106.669 180.634 106.583C180.668 106.496 180.72 106.417 180.787 106.351C180.85 106.287 180.925 106.236 181.007 106.202C181.09 106.167 181.179 106.149 181.269 106.149C181.394 106.148 181.518 106.183 181.623 106.251C181.729 106.318 181.812 106.416 181.863 106.531L182.85 108.291L183.791 106.609C183.851 106.478 183.945 106.366 184.063 106.285C184.182 106.204 184.321 106.157 184.464 106.149C184.552 106.149 184.639 106.167 184.72 106.202C184.801 106.237 184.874 106.287 184.935 106.351C185.001 106.413 185.053 106.488 185.087 106.571C185.122 106.654 185.139 106.743 185.137 106.833C185.135 106.993 185.089 107.148 185.002 107.282L184.016 108.863L186.067 108.807C186.163 108.801 186.258 108.816 186.347 108.851C186.436 108.886 186.517 108.939 186.583 109.008C186.698 109.143 186.762 109.314 186.762 109.49C186.762 109.667 186.698 109.838 186.583 109.973C186.517 110.041 186.436 110.095 186.347 110.13C186.258 110.165 186.163 110.18 186.067 110.174H183.993L184.913 111.609C185.016 111.783 185.074 111.979 185.081 112.181C185.084 112.272 185.069 112.363 185.036 112.447C185.003 112.532 184.954 112.609 184.89 112.674C184.831 112.737 184.76 112.788 184.681 112.822C184.602 112.857 184.517 112.875 184.43 112.876C184.291 112.874 184.156 112.832 184.04 112.754C183.925 112.677 183.835 112.567 183.78 112.439L182.85 110.791L181.919 112.439C181.864 112.571 181.772 112.684 181.655 112.765C181.538 112.846 181.4 112.893 181.258 112.899Z" fill="black"/>
<path d="M191.55 112.899C191.462 112.899 191.374 112.881 191.294 112.846C191.213 112.811 191.14 112.761 191.079 112.697C191.012 112.631 190.96 112.552 190.926 112.466C190.891 112.379 190.874 112.286 190.877 112.192C190.877 112.035 190.919 111.88 191 111.744L192.009 110.174H189.946C189.851 110.179 189.756 110.164 189.667 110.129C189.578 110.094 189.497 110.041 189.431 109.973C189.315 109.838 189.252 109.667 189.252 109.49C189.252 109.314 189.315 109.143 189.431 109.008C189.497 108.94 189.578 108.887 189.667 108.852C189.756 108.817 189.851 108.802 189.946 108.807L191.976 108.863L191.023 107.349C190.933 107.2 190.883 107.03 190.877 106.856C190.874 106.762 190.891 106.669 190.926 106.583C190.96 106.496 191.012 106.417 191.079 106.351C191.142 106.287 191.217 106.236 191.299 106.202C191.382 106.167 191.471 106.149 191.561 106.149C191.686 106.148 191.81 106.183 191.915 106.251C192.021 106.318 192.104 106.416 192.155 106.531L193.142 108.291L194.083 106.609C194.143 106.478 194.237 106.366 194.355 106.285C194.474 106.204 194.613 106.157 194.756 106.149C194.844 106.149 194.931 106.167 195.012 106.202C195.093 106.237 195.166 106.287 195.227 106.351C195.293 106.413 195.345 106.488 195.379 106.571C195.414 106.654 195.431 106.743 195.429 106.833C195.427 106.993 195.381 107.148 195.294 107.282L194.308 108.863L196.359 108.807C196.455 108.801 196.55 108.816 196.639 108.851C196.728 108.886 196.809 108.939 196.875 109.008C196.99 109.143 197.054 109.314 197.054 109.49C197.054 109.667 196.99 109.838 196.875 109.973C196.809 110.041 196.728 110.095 196.639 110.13C196.55 110.165 196.455 110.18 196.359 110.174H194.285L195.205 111.609C195.308 111.783 195.366 111.979 195.373 112.181C195.376 112.272 195.361 112.363 195.328 112.447C195.295 112.532 195.246 112.609 195.182 112.674C195.123 112.737 195.052 112.788 194.973 112.822C194.894 112.857 194.809 112.875 194.723 112.876C194.583 112.874 194.448 112.832 194.332 112.754C194.217 112.677 194.127 112.567 194.072 112.439L193.142 110.791L192.211 112.439C192.156 112.571 192.064 112.684 191.947 112.765C191.83 112.846 191.692 112.893 191.55 112.899Z" fill="black"/>
<path d="M201.887 112.899C201.799 112.899 201.711 112.881 201.631 112.846C201.55 112.811 201.477 112.761 201.416 112.697C201.349 112.631 201.297 112.552 201.263 112.466C201.228 112.379 201.211 112.286 201.214 112.192C201.214 112.035 201.256 111.88 201.337 111.744L202.346 110.174H200.283C200.188 110.179 200.093 110.164 200.004 110.129C199.915 110.094 199.834 110.041 199.768 109.973C199.652 109.838 199.589 109.667 199.589 109.49C199.589 109.314 199.652 109.143 199.768 109.008C199.834 108.94 199.915 108.887 200.004 108.852C200.093 108.817 200.188 108.802 200.283 108.807L202.313 108.863L201.36 107.349C201.27 107.2 201.22 107.03 201.214 106.856C201.211 106.762 201.228 106.669 201.263 106.583C201.297 106.496 201.349 106.417 201.416 106.351C201.479 106.287 201.554 106.236 201.636 106.202C201.719 106.167 201.808 106.149 201.898 106.149C202.023 106.148 202.147 106.183 202.252 106.251C202.358 106.318 202.441 106.416 202.492 106.531L203.479 108.291L204.42 106.609C204.48 106.478 204.574 106.366 204.692 106.285C204.811 106.204 204.95 106.157 205.093 106.149C205.181 106.149 205.268 106.167 205.349 106.202C205.43 106.237 205.503 106.287 205.564 106.351C205.63 106.413 205.682 106.488 205.716 106.571C205.751 106.654 205.768 106.743 205.766 106.833C205.764 106.993 205.718 107.148 205.631 107.282L204.645 108.863L206.696 108.807C206.792 108.801 206.887 108.816 206.976 108.851C207.065 108.886 207.146 108.939 207.212 109.008C207.327 109.143 207.391 109.314 207.391 109.49C207.391 109.667 207.327 109.838 207.212 109.973C207.146 110.041 207.065 110.095 206.976 110.13C206.887 110.165 206.792 110.18 206.696 110.174H204.622L205.542 111.609C205.645 111.783 205.703 111.979 205.71 112.181C205.713 112.272 205.698 112.363 205.665 112.447C205.632 112.532 205.583 112.609 205.519 112.674C205.46 112.737 205.389 112.788 205.31 112.822C205.231 112.857 205.146 112.875 205.059 112.876C204.921 112.873 204.786 112.83 204.671 112.753C204.555 112.675 204.465 112.566 204.409 112.439L203.479 110.791L202.548 112.439C202.493 112.571 202.401 112.684 202.284 112.765C202.167 112.846 202.029 112.893 201.887 112.899Z" fill="black"/>
<path d="M212.134 112.899C212.046 112.899 211.959 112.881 211.878 112.846C211.797 112.811 211.724 112.761 211.663 112.697C211.597 112.631 211.544 112.552 211.51 112.466C211.475 112.379 211.458 112.286 211.461 112.192C211.466 112.035 211.509 111.882 211.584 111.744L212.593 110.174H210.531C210.435 110.179 210.34 110.164 210.251 110.129C210.162 110.094 210.082 110.041 210.015 109.973C209.9 109.838 209.836 109.667 209.836 109.49C209.836 109.314 209.9 109.143 210.015 109.008C210.082 108.94 210.162 108.887 210.251 108.852C210.34 108.817 210.435 108.802 210.531 108.807L212.56 108.863L211.607 107.349C211.517 107.2 211.467 107.03 211.461 106.856C211.458 106.762 211.475 106.669 211.51 106.583C211.544 106.496 211.597 106.417 211.663 106.351C211.726 106.287 211.801 106.236 211.884 106.202C211.966 106.167 212.055 106.149 212.145 106.149C212.271 106.148 212.394 106.183 212.5 106.251C212.605 106.318 212.689 106.416 212.739 106.531L213.726 108.291L214.668 106.609C214.727 106.478 214.821 106.366 214.94 106.285C215.058 106.204 215.197 106.157 215.34 106.149C215.429 106.148 215.516 106.165 215.597 106.2C215.678 106.235 215.751 106.286 215.811 106.351C215.877 106.413 215.929 106.488 215.964 106.571C215.998 106.654 216.015 106.743 216.013 106.833C216.011 106.993 215.965 107.148 215.878 107.282L214.892 108.863L216.943 108.807C217.039 108.801 217.134 108.816 217.223 108.851C217.313 108.886 217.393 108.939 217.459 109.008C217.574 109.143 217.638 109.314 217.638 109.49C217.638 109.667 217.574 109.838 217.459 109.973C217.393 110.041 217.313 110.095 217.223 110.13C217.134 110.165 217.039 110.18 216.943 110.174H214.869L215.789 111.609C215.892 111.783 215.95 111.979 215.957 112.181C215.96 112.272 215.945 112.363 215.912 112.447C215.879 112.532 215.83 112.609 215.766 112.674C215.707 112.737 215.636 112.788 215.557 112.822C215.478 112.857 215.393 112.875 215.307 112.876C215.168 112.873 215.033 112.83 214.918 112.753C214.803 112.675 214.712 112.566 214.656 112.439L213.726 110.791L212.795 112.439C212.74 112.571 212.648 112.684 212.531 112.765C212.414 112.846 212.276 112.893 212.134 112.899Z" fill="black"/>
<path d="M222.426 112.899C222.338 112.899 222.251 112.881 222.17 112.846C222.089 112.811 222.016 112.761 221.955 112.697C221.889 112.631 221.837 112.552 221.802 112.466C221.767 112.379 221.751 112.286 221.753 112.192C221.758 112.035 221.801 111.882 221.876 111.744L222.886 110.174H220.834C220.737 110.18 220.639 110.165 220.549 110.13C220.458 110.096 220.375 110.042 220.307 109.973C220.192 109.838 220.128 109.667 220.128 109.49C220.128 109.314 220.192 109.143 220.307 109.008C220.375 108.939 220.458 108.885 220.549 108.851C220.639 108.816 220.737 108.801 220.834 108.807L222.852 108.863L221.899 107.349C221.809 107.2 221.759 107.03 221.753 106.856C221.751 106.762 221.767 106.669 221.802 106.583C221.837 106.496 221.889 106.417 221.955 106.351C222.018 106.287 222.093 106.236 222.176 106.202C222.258 106.167 222.347 106.149 222.437 106.149C222.563 106.148 222.686 106.183 222.792 106.251C222.897 106.318 222.981 106.416 223.031 106.531L224.018 108.291L224.96 106.609C225.019 106.478 225.113 106.366 225.232 106.285C225.35 106.204 225.489 106.157 225.632 106.149C225.721 106.148 225.808 106.165 225.889 106.2C225.97 106.235 226.043 106.286 226.103 106.351C226.169 106.413 226.221 106.488 226.256 106.571C226.29 106.654 226.307 106.743 226.305 106.833C226.303 106.993 226.257 107.148 226.17 107.282L225.184 108.863L227.236 108.807C227.331 108.801 227.426 108.816 227.516 108.851C227.605 108.886 227.685 108.939 227.751 109.008C227.866 109.143 227.93 109.314 227.93 109.49C227.93 109.667 227.866 109.838 227.751 109.973C227.685 110.041 227.605 110.095 227.516 110.13C227.426 110.165 227.331 110.18 227.236 110.174H225.161L226.081 111.609C226.184 111.783 226.242 111.979 226.249 112.181C226.252 112.272 226.237 112.363 226.204 112.447C226.171 112.532 226.122 112.609 226.058 112.674C225.999 112.737 225.928 112.788 225.849 112.822C225.77 112.857 225.685 112.875 225.599 112.876C225.46 112.873 225.325 112.83 225.21 112.753C225.095 112.675 225.004 112.566 224.948 112.439L224.018 110.791L223.087 112.439C223.032 112.571 222.941 112.684 222.823 112.765C222.706 112.846 222.568 112.893 222.426 112.899Z" fill="black"/>
<path d="M232.718 112.899C232.63 112.899 232.543 112.881 232.462 112.846C232.381 112.811 232.308 112.761 232.247 112.697C232.181 112.631 232.129 112.552 232.094 112.466C232.059 112.379 232.043 112.286 232.045 112.192C232.045 112.035 232.088 111.88 232.169 111.744L233.178 110.174H231.115C231.019 110.179 230.924 110.164 230.835 110.129C230.746 110.094 230.666 110.041 230.599 109.973C230.484 109.838 230.42 109.667 230.42 109.49C230.42 109.314 230.484 109.143 230.599 109.008C230.666 108.94 230.746 108.887 230.835 108.852C230.924 108.817 231.019 108.802 231.115 108.807L233.144 108.863L232.157 107.405C232.067 107.256 232.017 107.086 232.012 106.912C232.009 106.818 232.026 106.725 232.06 106.639C232.095 106.552 232.147 106.473 232.213 106.407C232.276 106.343 232.351 106.292 232.434 106.258C232.517 106.223 232.606 106.205 232.696 106.205C232.821 106.204 232.944 106.239 233.05 106.307C233.156 106.374 233.239 106.472 233.29 106.587L234.276 108.347L235.218 106.665C235.277 106.534 235.371 106.422 235.49 106.341C235.609 106.26 235.747 106.213 235.891 106.205C235.979 106.204 236.067 106.221 236.148 106.256C236.229 106.291 236.302 106.342 236.362 106.407C236.427 106.469 236.479 106.544 236.514 106.627C236.549 106.71 236.566 106.799 236.563 106.889C236.562 107.049 236.515 107.204 236.429 107.338L235.442 108.919L237.494 108.863C237.589 108.857 237.685 108.872 237.774 108.907C237.863 108.942 237.943 108.995 238.01 109.064C238.125 109.199 238.188 109.37 238.188 109.546C238.188 109.723 238.125 109.894 238.01 110.029C237.943 110.097 237.863 110.151 237.774 110.186C237.685 110.221 237.589 110.236 237.494 110.23H235.42L236.339 111.665C236.443 111.839 236.501 112.035 236.507 112.237C236.511 112.328 236.495 112.419 236.463 112.503C236.43 112.588 236.38 112.665 236.317 112.731C236.258 112.793 236.187 112.844 236.108 112.878C236.029 112.913 235.943 112.931 235.857 112.932C235.718 112.929 235.583 112.886 235.468 112.809C235.353 112.731 235.262 112.622 235.207 112.495L234.276 110.847L233.346 112.495C233.285 112.611 233.196 112.71 233.086 112.78C232.975 112.851 232.849 112.892 232.718 112.899Z" fill="black"/>
<path d="M243.01 112.899C242.922 112.899 242.835 112.881 242.754 112.846C242.673 112.811 242.6 112.761 242.539 112.697C242.473 112.631 242.421 112.552 242.386 112.466C242.351 112.379 242.335 112.286 242.337 112.192C242.342 112.035 242.385 111.882 242.461 111.744L243.47 110.174H241.418C241.322 110.182 241.226 110.167 241.137 110.132C241.048 110.097 240.968 110.043 240.902 109.973C240.78 109.842 240.712 109.669 240.712 109.49C240.712 109.311 240.78 109.139 240.902 109.008C240.968 108.938 241.048 108.884 241.137 108.849C241.226 108.814 241.322 108.799 241.418 108.807L243.436 108.863L242.483 107.349C242.393 107.2 242.343 107.03 242.337 106.856C242.334 106.764 242.35 106.673 242.383 106.587C242.416 106.502 242.466 106.424 242.529 106.358C242.593 106.292 242.67 106.239 242.754 106.204C242.839 106.168 242.929 106.149 243.021 106.149C243.147 106.148 243.27 106.183 243.376 106.251C243.481 106.318 243.565 106.416 243.615 106.531L244.602 108.291L245.544 106.609C245.603 106.478 245.697 106.366 245.816 106.285C245.934 106.204 246.073 106.157 246.216 106.149C246.305 106.147 246.393 106.163 246.474 106.198C246.556 106.233 246.628 106.285 246.687 106.351C246.753 106.413 246.805 106.488 246.84 106.571C246.875 106.654 246.891 106.743 246.889 106.833C246.888 106.993 246.841 107.148 246.755 107.282L245.768 108.863L247.82 108.807C247.915 108.801 248.011 108.816 248.1 108.851C248.189 108.886 248.269 108.939 248.335 109.008C248.451 109.143 248.514 109.314 248.514 109.49C248.514 109.667 248.451 109.838 248.335 109.973C248.269 110.041 248.189 110.095 248.1 110.13C248.011 110.165 247.915 110.18 247.82 110.174H245.746L246.665 111.609C246.769 111.783 246.826 111.979 246.833 112.181C246.836 112.27 246.822 112.358 246.79 112.44C246.759 112.523 246.712 112.599 246.652 112.664C246.592 112.728 246.519 112.78 246.439 112.817C246.358 112.853 246.271 112.873 246.183 112.876C246.044 112.873 245.909 112.83 245.794 112.752C245.679 112.675 245.588 112.566 245.533 112.439L244.602 110.791L243.671 112.439C243.616 112.571 243.525 112.684 243.408 112.765C243.29 112.846 243.152 112.893 243.01 112.899Z" fill="black"/>
<path d="M253.302 112.899C253.214 112.899 253.127 112.881 253.046 112.846C252.965 112.811 252.892 112.761 252.831 112.697C252.765 112.631 252.713 112.552 252.678 112.466C252.643 112.379 252.627 112.286 252.629 112.192C252.635 112.035 252.677 111.882 252.753 111.744L253.762 110.174H251.699C251.605 110.18 251.511 110.165 251.424 110.13C251.337 110.095 251.258 110.041 251.194 109.973C251.072 109.842 251.004 109.669 251.004 109.49C251.004 109.311 251.072 109.139 251.194 109.008C251.258 108.94 251.337 108.886 251.424 108.851C251.511 108.816 251.605 108.801 251.699 108.807L253.728 108.863L252.775 107.349C252.685 107.2 252.635 107.03 252.629 106.856C252.626 106.764 252.642 106.673 252.675 106.587C252.708 106.502 252.758 106.424 252.822 106.358C252.885 106.292 252.962 106.239 253.046 106.204C253.131 106.168 253.221 106.149 253.313 106.149C253.439 106.148 253.562 106.183 253.668 106.251C253.773 106.318 253.857 106.416 253.907 106.531L254.894 108.291L255.836 106.609C255.895 106.478 255.989 106.366 256.108 106.285C256.226 106.204 256.365 106.157 256.508 106.149C256.597 106.147 256.685 106.163 256.766 106.198C256.848 106.233 256.92 106.285 256.979 106.351C257.045 106.413 257.097 106.488 257.132 106.571C257.167 106.654 257.183 106.743 257.181 106.833C257.18 106.993 257.133 107.148 257.047 107.282L256.06 108.863L258.112 108.807C258.207 108.801 258.303 108.816 258.392 108.851C258.481 108.886 258.561 108.939 258.627 109.008C258.743 109.143 258.806 109.314 258.806 109.49C258.806 109.667 258.743 109.838 258.627 109.973C258.561 110.041 258.481 110.095 258.392 110.13C258.303 110.165 258.207 110.18 258.112 110.174H256.038L256.957 111.609C257.061 111.783 257.119 111.979 257.125 112.181C257.128 112.27 257.114 112.358 257.083 112.44C257.052 112.523 257.004 112.599 256.944 112.664C256.884 112.728 256.811 112.78 256.731 112.817C256.65 112.853 256.563 112.873 256.475 112.876C256.336 112.873 256.201 112.83 256.086 112.752C255.971 112.675 255.88 112.566 255.825 112.439L254.894 110.791L253.963 112.439C253.908 112.571 253.817 112.684 253.7 112.765C253.582 112.846 253.445 112.893 253.302 112.899Z" fill="black"/>
<path d="M263.549 112.899C263.461 112.899 263.374 112.881 263.293 112.846C263.212 112.811 263.139 112.761 263.078 112.697C263.012 112.631 262.96 112.552 262.925 112.466C262.89 112.379 262.874 112.286 262.877 112.192C262.882 112.035 262.924 111.882 263 111.744L264.009 110.174H261.946C261.852 110.18 261.758 110.165 261.671 110.13C261.584 110.095 261.506 110.041 261.441 109.973C261.319 109.842 261.251 109.669 261.251 109.49C261.251 109.311 261.319 109.139 261.441 109.008C261.506 108.94 261.584 108.886 261.671 108.851C261.758 108.816 261.852 108.801 261.946 108.807L263.975 108.863L263.022 107.349C262.932 107.2 262.882 107.03 262.877 106.856C262.874 106.762 262.89 106.669 262.925 106.583C262.96 106.496 263.012 106.417 263.078 106.351C263.141 106.287 263.216 106.236 263.299 106.202C263.382 106.167 263.471 106.149 263.56 106.149C263.686 106.148 263.809 106.183 263.915 106.251C264.021 106.318 264.104 106.416 264.155 106.531L265.141 108.291L266.083 106.609C266.142 106.478 266.236 106.366 266.355 106.285C266.474 106.204 266.612 106.157 266.756 106.149C266.844 106.147 266.932 106.163 267.014 106.198C267.095 106.233 267.168 106.285 267.227 106.351C267.292 106.413 267.344 106.488 267.379 106.571C267.414 106.654 267.431 106.743 267.428 106.833C267.427 106.993 267.38 107.148 267.294 107.282L266.307 108.863L268.359 108.807C268.454 108.801 268.55 108.816 268.639 108.851C268.728 108.886 268.808 108.939 268.875 109.008C268.99 109.143 269.053 109.314 269.053 109.49C269.053 109.667 268.99 109.838 268.875 109.973C268.808 110.041 268.728 110.095 268.639 110.13C268.55 110.165 268.454 110.18 268.359 110.174H266.285L267.204 111.609C267.308 111.783 267.366 111.979 267.372 112.181C267.376 112.272 267.36 112.363 267.328 112.447C267.295 112.532 267.245 112.609 267.182 112.674C267.123 112.737 267.052 112.788 266.973 112.822C266.894 112.857 266.808 112.875 266.722 112.876C266.583 112.873 266.448 112.83 266.333 112.752C266.218 112.675 266.127 112.566 266.072 112.439L265.141 110.791L264.211 112.439C264.155 112.571 264.064 112.684 263.947 112.765C263.83 112.846 263.692 112.893 263.549 112.899Z" fill="black"/>
<path d="M298.82 137.698H312.532" stroke="white" stroke-width="1.46389" stroke-linecap="round" stroke-linejoin="round"/>
<path d="M108.641 36.7397V127.81C108.641 130.447 109.689 132.977 111.554 134.842C113.419 136.707 115.949 137.754 118.586 137.754H285.804" stroke="white" stroke-width="1.46389" stroke-linecap="round" stroke-linejoin="round"/>
<path d="M108.641 12.5904V26.2459" stroke="white" stroke-width="1.46389" stroke-linecap="round" stroke-linejoin="round"/>
</svg>
