<svg width="120" height="27" viewBox="0 0 120 27" fill="none" xmlns="http://www.w3.org/2000/svg">
<path d="M4.42623 25.636C3.82293 25.6569 3.22203 25.5499 2.66304 25.322C2.10404 25.0941 1.5996 24.7505 1.18288 24.3138C0.766154 23.877 0.44658 23.357 0.245161 22.788C0.0437418 22.2189 -0.0349613 21.6136 0.0142247 21.012V11.253C0.0142247 3.85401 6.03523 0.183014 12.0083 0.183014C17.9813 0.183014 23.9733 3.85401 23.9733 11.253V25.636H23.1933C22.59 25.6569 21.9891 25.5499 21.4301 25.322C20.8711 25.0941 20.3666 24.7505 19.9499 24.3138C19.5332 23.877 19.2136 23.357 19.0122 22.788C18.8108 22.2189 18.7321 21.6136 18.7813 21.012V11.253C18.7813 7.30301 15.3993 5.30901 12.0373 5.30901C8.67523 5.30901 5.29323 7.30301 5.29323 11.253V25.636H4.42623ZM7.80723 14.702H13.4073C13.81 14.6877 14.2112 14.7578 14.5852 14.9078C14.9592 15.0577 15.2977 15.2843 15.579 15.5728C15.8603 15.8613 16.0781 16.2055 16.2185 16.5832C16.3589 16.9609 16.4188 17.3638 16.3943 17.766V19.153H10.8743C10.4662 19.1783 10.0573 19.1167 9.67475 18.9724C9.29221 18.828 8.94465 18.6041 8.65505 18.3154C8.36546 18.0268 8.1404 17.6799 7.99477 17.2979C7.84914 16.9158 7.78624 16.5072 7.81023 16.099L7.80723 14.702Z" fill="black"/>
<path d="M28.7131 21.754H41.2371C44.0501 21.754 46.1891 20.935 46.1891 19.085C46.1891 16.917 43.2991 16.272 39.8111 15.559C34.9941 14.528 29.0981 13.247 29.0981 7.476C29.1081 2.206 33.9831 0 39.3231 0H50.2931V4.74H39.6931C36.9471 4.74 34.8761 5.588 34.8761 7.63C34.8761 9.672 37.7661 10.26 41.1381 10.944C45.9551 11.907 52.0051 13.073 52.0051 18.95C52.0051 24.326 46.6581 26.503 40.7521 26.503H33.0481C32.462 26.5255 31.8779 26.423 31.3345 26.2025C30.7911 25.9819 30.3008 25.6483 29.8962 25.2237C29.4916 24.7992 29.182 24.2934 28.9878 23.74C28.7937 23.1866 28.7194 22.5983 28.7701 22.014L28.7131 21.754Z" fill="black"/>
<path d="M60.9782 6.19501C60.409 6.23391 59.838 6.14991 59.3041 5.94881C58.7702 5.74761 58.2859 5.43401 57.8838 5.02921C57.4818 4.62441 57.1715 4.13791 56.974 3.60271C56.7765 3.06741 56.6964 2.49591 56.7392 1.92701V0.713013H61.9322V6.19501H60.9782Z" fill="#FB4D3D"/>
<path d="M60.9773 25.636C60.398 25.6555 59.8211 25.5523 59.2844 25.3332C58.7478 25.1142 58.2634 24.7842 57.8632 24.3649C57.463 23.9456 57.1559 23.4464 56.962 22.9001C56.7682 22.3539 56.6919 21.7728 56.7383 21.195V8.29501H61.9313V25.636H60.9773Z" fill="black"/>
<path d="M65.3911 0.713013H91.2011V5.12501H69.0421C68.5388 5.14101 68.0378 5.05111 67.5716 4.86121C67.1053 4.67121 66.6841 4.38531 66.3354 4.02221C65.9866 3.65901 65.7181 3.22661 65.5471 2.75301C65.3762 2.27941 65.3067 1.77521 65.3431 1.27301L65.3911 0.713013ZM75.3621 7.79401H80.5551V25.636H79.4951C78.9287 25.6557 78.3646 25.5551 77.84 25.3408C77.3154 25.1265 76.8422 24.8034 76.4516 24.3928C76.0611 23.9822 75.762 23.4934 75.5742 22.9588C75.3864 22.4241 75.3141 21.8557 75.3621 21.291V7.79401Z" fill="black"/>
<path d="M93.3391 0.713013H99.3601L104.736 9.04601L104.062 10.009C103.878 10.4227 103.578 10.7741 103.198 11.0208C102.819 11.2674 102.376 11.3987 101.923 11.3987C101.47 11.3987 101.027 11.2674 100.647 11.0208C100.268 10.7741 99.9681 10.4227 99.7841 10.009L93.3391 0.713013ZM103.599 15.164L113.031 0.713013H119.052L108.792 15.598V25.636H107.829C105.295 25.636 103.59 23.854 103.59 21.147L103.599 15.164Z" fill="black"/>
</svg>
